<svg xmlns="http://www.w3.org/2000/svg" xmlns:xlink="http://www.w3.org/1999/xlink" viewBox="1.929 2.696 364.179 356.802">
  <defs>
    <path id="a" d="M62.93 355.5v-18.91h17.98v18.91H62.93zm292.68-57.22l1.26.44 1.18.59 1.08.74.98.86.87.98.73 1.09.59 1.18.44 1.26.27 1.33.1 1.38-.1 1.39-.27 1.33-.44 1.26-.59 1.18-.73 1.08-.87.98-.98.87-1.08.73-1.18.59-1.26.44-1.33.27-1.39.1-1.38-.1-1.33-.27-1.26-.44-1.18-.59-1.09-.73-.98-.87-.86-.98-.74-1.08-.59-1.18-.44-1.26-.27-1.33-.09-1.39.09-1.38.27-1.33.44-1.26.59-1.18.74-1.09.86-.98.98-.86 1.09-.74 1.18-.59 1.26-.44 1.33-.27 1.38-.09 1.39.09 1.33.27zm-121.13 7.43h-23.6l5.9-10.21 5.9-10.22 5.9 10.22 5.9 10.21zM2.93 295.5v-18.91h17.98v18.91H2.93zm290.09-19.67l14.05 12.61-7.86 7.06-14.05-12.61-14.05 12.61-7.87-7.06 14.05-12.61-14.05-12.61 7.87-7.06 14.05 12.61 14.05-12.61 7.86 7.06-14.05 12.61zm-104.63-13.55l1.27.36 1.21.49 1.14.6 1.06.72.96.83.86.92.76 1 .64 1.08.51 1.15.38 1.22.23 1.26.08 1.31-.08 1.31-.23 1.27-.38 1.21-.51 1.15-.64 1.09-.76 1-.86.92-.96.82-1.06.72-1.14.61-1.21.49-1.27.36-1.33.22-1.37.07-1.38-.07-1.33-.22-1.27-.36-1.21-.49-1.14-.61-1.05-.72-.97-.82-.86-.92-.76-1-.64-1.09-.51-1.15-.37-1.21-.24-1.27-.08-1.31.08-1.31.24-1.26.37-1.22.51-1.15.64-1.08.76-1 .86-.92.97-.83 1.05-.72 1.14-.6 1.21-.49 1.27-.36 1.33-.22 1.38-.08 1.37.08 1.33.22zm-71.27 14.31h-23.6l5.9-10.22 5.9-10.21 5.9 10.21 5.9 10.22zm-70.37-34.48l9.01 9.01-5.05 5.04-9-9.01-9.01 9.01-5.04-5.04 9-9.01-9-9.01 5.04-5.04 9.01 9.01 9-9.01 5.05 5.04-9.01 9.01zm147.6-13.15l7.57 7.2-4.24 4.04-7.57-7.21-7.56 7.21-4.24-4.04 7.57-7.2-7.57-7.21 4.24-4.03 7.56 7.2 7.57-7.2 4.24 4.03-7.57 7.21zm109.91.53h-34.84l8.71-15.57 8.71-15.57 8.71 15.57 8.71 15.57zm34.46-17.09l9 9-5.04 5.05-9.01-9.01-9 9.01-5.05-5.05 9.01-9-9.01-9.01 5.05-5.04 9 9 9.01-9 5.04 5.04-9 9.01zm-105.33-94.9l1.99.29 1.97.36 1.94.44 1.91.52 1.87.59 1.85.67 1.81.73 1.78.8 1.74.87 1.7.94 1.66 1 1.62 1.06 1.57 1.12 1.53 1.18 1.49 1.24 1.43 1.29 1.38 1.35 1.33 1.39 1.28 1.45 1.23 1.5 1.16 1.55 1.11 1.59 1.05 1.64.99 1.68.92 1.72.86 1.76.8 1.79.72 1.84.66 1.86.58 1.9.51 1.93.44 1.96.36 1.99.29 2.02.2 2.04.13 2.06.04 2.08-.04 2.09-.13 2.06-.2 2.04-.29 2.01-.36 1.99-.44 1.96-.51 1.93-.58 1.9-.66 1.87-.72 1.83-.8 1.8-.86 1.76-.92 1.72-.99 1.68-1.05 1.63-1.11 1.6-1.16 1.54-1.23 1.5-1.28 1.45-1.33 1.4-1.38 1.35-1.43 1.29-1.49 1.24-1.53 1.18-1.57 1.12-1.62 1.06-1.66 1-1.7.93-1.74.87-1.78.8-1.81.74-1.85.66-1.87.59-1.91.52-1.94.44-1.97.37-1.99.29-2.02.2-2.04.13-2.06.04-2.06-.04-2.04-.13-2.01-.2-2-.29-1.96-.37-1.94-.44-1.91-.52-1.88-.59-1.85-.66-1.81-.74-1.77-.8-1.74-.87-1.71-.93-1.66-1-1.61-1.06-1.58-1.12-1.53-1.18-1.48-1.24-1.43-1.29-1.39-1.35-1.33-1.4-1.28-1.45-1.22-1.5-1.17-1.54-1.11-1.6-1.05-1.63-.98-1.68-.93-1.72-.86-1.76v-.01l-.53.07-1.86.21-1.88.15-1.9.09-1.93.03-1.6-.03-.61 1.25-.92 1.72-.99 1.68-1.05 1.63-1.11 1.6-1.17 1.54-1.22 1.5-1.28 1.45-1.33 1.4-1.38 1.35-1.44 1.29-1.48 1.24-1.53 1.18-1.57 1.12-1.62 1.06-1.66 1-1.7.93-1.74.87-1.78.8-1.81.74-1.85.66-1.88.59-1.91.52-1.94.44-1.96.37-1.99.29-2.02.2-2.04.13-2.06.04-2.06-.04-2.04-.13-2.02-.2-1.99-.29-1.97-.37-1.93-.44-1.91-.52-1.88-.59-1.85-.66-1.81-.74-1.78-.8-1.74-.87-1.7-.93-1.66-1-1.62-1.06-1.57-1.12-1.53-1.18-1.48-1.24-1.44-1.29-1.38-1.35-1.33-1.4-1.28-1.45-1.22-1.5-1.17-1.54-1.11-1.6-1.05-1.63-.99-1.68-.92-1.72-.86-1.76-.79-1.8-.73-1.83-.66-1.87-.58-1.9-.51-1.93-.44-1.96-.36-1.99-.29-2.01-.2-2.04-.13-2.06-.04-2.09.04-2.08.13-2.06.2-2.04.29-2.02.36-1.99.44-1.96.51-1.93.58-1.9.66-1.86.73-1.84.79-1.79.86-1.76.92-1.72.99-1.68 1.05-1.64 1.11-1.59 1.17-1.55 1.22-1.5 1.28-1.45 1.33-1.39 1.38-1.35 1.44-1.29 1.48-1.24 1.53-1.18 1.57-1.12 1.62-1.06 1.66-1 1.7-.94 1.74-.87 1.78-.8 1.81-.73 1.85-.67 1.88-.59 1.91-.52 1.93-.44 1.97-.36 1.99-.29.5-.05v-.33h111.27v.33l.5.05zm-4.57 59.16l-1.26.44-1.18.59-1.08.74-.98.86-.87.98-.73 1.09-.59 1.18-.44 1.26-.27 1.33-.1 1.38.1 1.39.27 1.33.44 1.26.59 1.18.73 1.08.87.98.98.87 1.08.73 1.18.59 1.26.44 1.33.27 1.39.1 1.38-.1 1.33-.27 1.26-.44 1.18-.59 1.09-.73.98-.87.86-.98.74-1.08.59-1.18.44-1.26.27-1.33.09-1.39-.09-1.38-.27-1.33-.44-1.26-.59-1.18-.74-1.09-.86-.98-.98-.86-1.09-.74-1.18-.59-1.26-.44-1.33-.27-1.38-.09-1.39.09-1.33.27zm-168.8 16.83h-23.6l5.9-10.22 5.9-10.21 5.9 10.21 5.9 10.22zm61.5-40.46h-.07l-.02.01h-.02l-.02.01h-.02l-.02.01-.02.01h-.02l-.02.01-.02.01-.02.01-.02.01-.01.01-.02.02-.02.01-.01.01-.02.02-.01.01-.01.02-.02.01-.01.02-.01.01-.01.02-.01.02-.01.02-.01.01-.01.02-.01.02-.01.02v.02l-.01.02v.02l-.01.02v10.46h-10.89l-.02.01h-.07l-.02.01h-.02l-.02.01-.02.01h-.02l-.02.01-.02.01-.02.01-.02.01-.01.01-.02.01-.02.02-.01.01-.02.01-.01.02-.02.01-.01.02-.02.01-.01.02-.01.01-.01.02-.01.02-.01.01-.01.02-.01.02-.01.02-.01.02v.02l-.01.02v.02l-.01.02v8.47l.01.02v.02l.01.02v.02l.01.02.01.02.01.02.01.02.01.01.01.02.01.02.01.01.01.02.02.01.01.02.02.01.01.02.02.01.01.01.02.02.02.01.01.01.02.01.02.01.02.01.02.01h.02l.02.01.02.01h.02l.02.01h.07l.02.01H121v10.46l.01.02v.02l.01.02v.02l.01.02.01.02.01.02.01.01.01.02.01.02.01.02.01.01.01.02.02.01.01.02.01.01.02.02.01.01.02.01.02.02.01.01.02.01.02.01.02.01.02.01h.02l.02.01.02.01h.02l.02.01h.02l.02.01h.07l.02.01h8.69l.02-.01h.07l.02-.01h.02l.02-.01h.02l.02-.01.02-.01h.02l.02-.01.02-.01.02-.01.01-.01.02-.01.02-.02.01-.01.02-.01.01-.02.02-.01.01-.02.02-.01.01-.02.01-.01.01-.02.01-.02.01-.02.01-.01.01-.02.01-.02.01-.02v-.02l.01-.02v-.02l.01-.02v-10.46h10.89l.02-.01h.07l.02-.01h.02l.02-.01.02-.01h.02l.02-.01.02-.01.02-.01.01-.01.02-.01.02-.01.02-.02.01-.01.02-.01.01-.02.02-.01.01-.02.01-.01.02-.02.01-.01.01-.02.01-.02.01-.01.01-.02.01-.02.01-.02v-.02l.01-.02.01-.02v-.04l.01-.02v-8.43l-.01-.02v-.04l-.01-.02-.01-.02v-.02l-.01-.02-.01-.02-.01-.02-.01-.01-.01-.02-.01-.02-.01-.01-.02-.02-.01-.01-.01-.02-.02-.01-.01-.02-.02-.01-.01-.01-.02-.02-.02-.01-.02-.01-.01-.01-.02-.01-.02-.01-.02-.01h-.02l-.02-.01-.02-.01h-.02l-.02-.01h-.07l-.02-.01h-10.89v-10.46l-.01-.02v-.02l-.01-.02v-.02l-.01-.02-.01-.02-.01-.02-.01-.01-.01-.02-.01-.02-.01-.02-.01-.01-.01-.02-.02-.01-.01-.02-.02-.01-.01-.02-.02-.01-.01-.01-.02-.02-.02-.01-.01-.01-.02-.01-.02-.01-.02-.01h-.02l-.02-.01-.02-.01h-.02l-.02-.01h-.02l-.02-.01h-.07l-.02-.01h-8.69l-.02.01zm127.74 6.5l-1.26.44-1.18.59-1.09.74-.98.86-.87.98-.73 1.09-.59 1.18-.44 1.26-.27 1.33-.1 1.38.1 1.39.27 1.33.44 1.26.59 1.18.73 1.08.87.98.98.87 1.09.73 1.18.59 1.26.44 1.32.27 1.39.1 1.39-.1 1.32-.27 1.26-.44 1.18-.59 1.09-.73.98-.87.87-.98.73-1.08.59-1.18.44-1.26.27-1.33.09-1.39-.09-1.38-.27-1.33-.44-1.26-.59-1.18-.73-1.09-.87-.98-.98-.86-1.09-.74-1.18-.59-1.26-.44-1.32-.27-1.39-.09-1.39.09-1.32.27zm-40.15-.16l-1.27.33-1.22.5-1.16.67-1.08.82-.98.98-.84 1.11-.66 1.18-.5 1.24-.33 1.28-.16 1.3.01 1.31.17 1.29.34 1.27.5 1.22.66 1.16.83 1.08.98.98 1.11.83 1.18.67 1.23.5 1.28.33 1.3.16 1.31-.01 1.3-.17 1.26-.34 1.23-.5 1.15-.66 1.08-.83.98-.98.84-1.11.67-1.18.5-1.24.32-1.27.16-1.31v-1.3l-.18-1.3-.33-1.27-.51-1.22-.66-1.15-.82-1.08-.99-.98-1.1-.84-1.18-.67-1.24-.5-1.28-.32-1.3-.16h-1.31l-1.29.18zm19.27-15l-1.26.5-1.16.66-1.06.79-.94.91-.81 1.03-.68 1.12-.53 1.2-.37 1.26-.21 1.32-.03 1.36.16 1.38.33 1.34.51 1.26.65 1.17.79 1.05.92.94 1.02.81 1.12.68 1.2.53 1.27.37 1.32.21 1.35.03 1.38-.15 1.35-.34 1.26-.5 1.16-.66 1.06-.79.94-.92.81-1.02.67-1.12.53-1.2.38-1.27.2-1.31.04-1.36-.16-1.38-.34-1.35-.5-1.26-.65-1.16-.8-1.05-.91-.94-1.03-.81-1.12-.68-1.19-.53-1.27-.37-1.32-.21-1.35-.03-1.38.15-1.35.34zM165 131.19l-.45.08-.42.13-.41.17-.37.21-.36.25-.32.29-.29.32-.25.35-.21.38-.17.4-.13.43-.07.44-.03.46.03.46.07.44.13.43.17.4.21.38.25.35.29.32.32.29.36.25.37.21.41.18.42.12.45.08.45.02h23.61l.46-.02.44-.08.42-.12.41-.18.38-.21.35-.25.32-.29.29-.32.25-.35.21-.38.17-.4.13-.43.08-.44.02-.46-.02-.46-.08-.44-.13-.43-.17-.4-.21-.38-.25-.35-.29-.32-.32-.29-.35-.25-.38-.21-.41-.17-.42-.13-.44-.08-.46-.02h-23.61l-.45.02zm194.52 7.51h-23.6l5.9-10.21 5.9-10.22 5.9 10.22 5.9 10.21zm-330.6-21.21l1.26.44 1.18.59 1.08.73.98.87.87.98.73 1.08.59 1.18.44 1.26.27 1.33.1 1.39-.1 1.38-.27 1.33-.44 1.26-.59 1.18-.73 1.09-.87.98-.98.86-1.08.74-1.18.59-1.26.44-1.33.27-1.39.09-1.38-.09-1.33-.27-1.26-.44-1.18-.59-1.09-.74-.98-.86-.86-.98-.74-1.09-.59-1.18-.44-1.26-.27-1.33-.09-1.38.09-1.39.27-1.33.44-1.26.59-1.18.74-1.08.86-.98.98-.87 1.09-.73 1.18-.59 1.26-.44 1.33-.27 1.38-.1 1.39.1 1.33.27zm35.45-19.78l5.77 6.06-3.23 3.4-5.77-6.06-5.76 6.06-3.23-3.4 5.77-6.06-5.77-6.06 3.23-3.39 5.76 6.06 5.77-6.06 3.23 3.39-5.77 6.06zm29.15 7.97V86.77h15.74v18.91H93.52zm196.15-12.07l5.04 6.55-2.82 3.67-5.05-6.55-5.04 6.55-2.82-3.67 5.04-6.55-5.04-6.54 2.82-3.67 5.04 6.55 5.05-6.55 2.82 3.67-5.04 6.54zM151.8 83.4l6.55 6.55-3.67 3.66-6.55-6.54-6.55 6.54-3.66-3.66 6.55-6.55-6.55-6.55 3.66-3.67 6.55 6.55 6.55-6.55 3.67 3.67-6.55 6.55zm71.02-13.05l1.12.51 1.04.7.91.85.79.99.64 1.12.48 1.23.3 1.31.1 1.38-.1 1.38-.3 1.31-.48 1.23-.64 1.12-.79.99-.91.85-1.04.7-1.12.51-1.21.33-1.28.11-1.27-.11-1.22-.33-1.12-.51-1.03-.7-.92-.85-.79-.99-.64-1.12-.48-1.23-.29-1.31-.11-1.38.11-1.38.29-1.31.48-1.23.64-1.12.79-.99.92-.85 1.03-.7 1.12-.51 1.22-.33 1.27-.11 1.28.11 1.21.33zm115.91 12.29V65.58h17.98v17.06h-17.98zm-25.11-40.19l1.29.51 1.18.7 1.04.85.9.99.73 1.12.55 1.22.34 1.32.12 1.38-.12 1.38-.34 1.31-.55 1.23-.73 1.11-.9 1-1.04.85-1.18.7-1.29.51-1.39.33-1.45.11-1.46-.11-1.38-.33-1.29-.51-1.18-.7-1.05-.85-.9-1-.73-1.11-.55-1.23-.34-1.31-.11-1.38.11-1.38.34-1.32.55-1.22.73-1.12.9-.99 1.05-.85 1.18-.7 1.29-.51 1.38-.33 1.46-.11 1.45.11 1.39.33zm-211.17-4.27l9.01 9-5.05 5.04-9-9-9.01 9-5.04-5.04 9-9-9-9.01 5.04-5.04 9.01 9 9-9 5.05 5.04-9.01 9.01zm83.12 6.84h-17.98l4.5-8.53 4.49-8.53 4.5 8.53 4.49 8.53zM134.55 4.06l1.26.44 1.18.59 1.09.74.98.86.86.98.73 1.09.6 1.18.43 1.26.28 1.33.09 1.38-.09 1.39-.28 1.32-.43 1.27-.6 1.17-.73 1.09-.86.98-.98.87-1.09.73-1.18.59-1.26.44-1.33.27-1.39.1-1.38-.1-1.33-.27-1.26-.44-1.18-.59-1.09-.73-.98-.87-.86-.98-.73-1.09-.6-1.17-.44-1.27-.27-1.32-.09-1.39.09-1.38.27-1.33.44-1.26.6-1.18.73-1.09.86-.98.98-.86 1.09-.74 1.18-.59 1.26-.44 1.33-.27 1.38-.09 1.39.09 1.33.27z"/>
  </defs>
  <use xlink:href="#a"/>
  <use fill-opacity="0" stroke="#c07fc2" stroke-width="2" xlink:href="#a"/>
</svg>
